<svg width="380" height="242" viewBox="0 0 380 242" fill="none" xmlns="http://www.w3.org/2000/svg">
<path d="M379.12 93.6641V79.559C379.12 76.8692 378.051 74.2897 376.149 72.3878C374.247 70.4858 371.668 69.4174 368.978 69.4174H333.182C331.85 69.4174 330.531 69.155 329.301 68.6454C328.07 68.1357 326.952 67.3887 326.01 66.447C325.069 65.5052 324.322 64.3872 323.812 63.1568C323.302 61.9263 323.04 60.6076 323.04 59.2758V45.1706C323.04 43.8388 323.302 42.52 323.812 41.2896C324.322 40.0591 325.069 38.9411 326.01 37.9994C326.952 37.0577 328.07 36.3106 329.301 35.801C330.531 35.2913 331.85 35.029 333.182 35.029H334.312C337.002 35.029 339.581 33.9605 341.483 32.0586C343.385 30.1567 344.454 27.5771 344.454 24.8874V10.7822C344.454 8.09251 343.385 5.51296 341.483 3.61104C339.581 1.70912 337.002 0.640625 334.312 0.640625H69.2022C66.5125 0.640625 63.933 1.70912 62.031 3.61104C60.1291 5.51296 59.0606 8.09251 59.0606 10.7822V24.8874C59.0606 27.5771 60.1291 30.1567 62.031 32.0586C63.933 33.9605 66.5125 35.029 69.2022 35.029C71.892 35.029 74.4715 36.0975 76.3734 37.9994C78.2754 39.9013 79.3439 42.4809 79.3439 45.1706V59.2758C79.3439 61.9655 78.2754 64.545 76.3734 66.447C74.4715 68.3489 71.892 69.4174 69.2022 69.4174H29.9838C27.294 69.4174 24.7145 70.4858 22.8126 72.3878C20.9106 74.2897 19.8421 76.8692 19.8421 79.559V93.6641C19.8421 96.3538 20.9106 98.9334 22.8126 100.835C24.7145 102.737 27.294 103.806 29.9838 103.806H45.3725C46.7043 103.806 48.0231 104.068 49.2535 104.578C50.484 105.087 51.602 105.834 52.5437 106.776C53.4854 107.718 54.2325 108.836 54.7421 110.066C55.2518 111.297 55.5141 112.616 55.5141 113.947V128.053C55.5141 129.384 55.2518 130.703 54.7421 131.934C54.2325 133.164 53.4854 134.282 52.5437 135.224C51.602 136.166 50.484 136.913 49.2535 137.422C48.0231 137.932 46.7043 138.194 45.3725 138.194H45.3353C42.6456 138.194 40.066 139.263 38.1641 141.165C36.2622 143.067 35.1937 145.646 35.1937 148.336V162.441C35.1937 163.773 35.456 165.091 35.9657 166.322C36.4754 167.552 37.2224 168.67 38.1641 169.612C39.1059 170.554 40.2239 171.301 41.4543 171.811C42.6847 172.32 44.0035 172.582 45.3353 172.582H47.5618C50.2515 172.582 52.831 173.651 54.733 175.553C56.6349 177.455 57.7034 180.034 57.7034 182.724V196.829C57.7034 199.519 56.6349 202.099 54.733 204.001C52.831 205.902 50.2515 206.971 47.5618 206.971H11.0221C8.33238 206.971 5.75283 208.039 3.85091 209.941C1.94898 211.843 0.880493 214.423 0.880493 217.113V231.218C0.880493 233.907 1.94898 236.487 3.85091 238.389C5.75283 240.291 8.33238 241.359 11.0221 241.359H339.757C342.446 241.359 345.026 240.291 346.928 238.389C348.83 236.487 349.898 233.907 349.898 231.218V217.113C349.898 214.423 348.83 211.843 346.928 209.941C345.026 208.039 342.446 206.971 339.757 206.971H330.963C328.274 206.971 325.694 205.902 323.792 204.001C321.89 202.099 320.822 199.519 320.822 196.829V182.724C320.822 180.034 321.89 177.455 323.792 175.553C325.694 173.651 328.274 172.582 330.963 172.582H351.697C353.029 172.582 354.348 172.32 355.578 171.811C356.809 171.301 357.927 170.554 358.868 169.612C359.81 168.67 360.557 167.552 361.067 166.322C361.576 165.091 361.839 163.773 361.839 162.441V148.336C361.839 145.646 360.77 143.066 358.868 141.165C356.966 139.263 354.387 138.194 351.697 138.194H345.407C344.076 138.194 342.757 137.932 341.526 137.422C340.296 136.913 339.178 136.166 338.236 135.224C337.294 134.282 336.547 133.164 336.038 131.934C335.528 130.703 335.266 129.384 335.266 128.053V113.947C335.266 112.616 335.528 111.297 336.038 110.066C336.547 108.836 337.294 107.718 338.236 106.776C339.178 105.834 340.296 105.087 341.526 104.578C342.757 104.068 344.076 103.806 345.407 103.806H368.978C371.668 103.806 374.247 102.737 376.149 100.835C378.051 98.9334 379.12 96.3538 379.12 93.6641Z" fill="#DBE8EC"/>
<path d="M230.631 102.233H106.694V215.005H230.631V102.233Z" fill="#409CB5"/>
<path d="M296.508 102.233H230.631V215.005H296.508V102.233Z" fill="#3086A3"/>
<path d="M296.508 102.513H230.631L253.195 71.735C253.411 71.4403 253.694 71.2006 254.02 71.0354C254.346 70.8703 254.706 70.7842 255.071 70.7842H315.179C315.609 70.7842 316.031 70.9033 316.397 71.1283C316.763 71.3533 317.06 71.6753 317.254 72.0587C317.449 72.4422 317.533 72.8719 317.498 73.3003C317.463 73.7287 317.31 74.139 317.055 74.4857L296.508 102.513Z" fill="#25788E"/>
<path d="M107 102.513H172.877L150.312 71.735C150.096 71.4403 149.814 71.2006 149.488 71.0354C149.162 70.8703 148.802 70.7842 148.436 70.7842H88.3281C87.8983 70.7842 87.4768 70.9033 87.1106 71.1283C86.7443 71.3533 86.4476 71.6753 86.2532 72.0587C86.0589 72.4422 85.9746 72.8719 86.0097 73.3003C86.0448 73.7287 86.198 74.139 86.4521 74.4857L107 102.513Z" fill="#3086A3"/>
<path d="M333.673 143.608L296.508 102.513V147.454H331.912C332.358 147.454 332.794 147.326 333.169 147.085C333.543 146.845 333.841 146.501 334.027 146.096C334.212 145.691 334.278 145.242 334.215 144.801C334.152 144.36 333.964 143.946 333.673 143.608Z" fill="#25788E"/>
<path d="M215.391 41.749H129.437V102.513H215.391V41.749Z" fill="#EE781D"/>
<path d="M169.902 106.264H146.254C145.798 106.264 145.349 106.144 144.954 105.915C144.559 105.687 144.23 105.359 144.002 104.963C143.774 104.568 143.654 104.12 143.654 103.663C143.654 103.207 143.774 102.758 144.002 102.363L155.826 81.8833L167.65 61.4038C167.878 61.0085 168.206 60.6802 168.602 60.4519C168.997 60.2237 169.445 60.1035 169.902 60.1035C170.358 60.1035 170.807 60.2237 171.202 60.4519C171.597 60.6802 171.926 61.0085 172.154 61.4038L183.978 81.8833L195.802 102.363C196.03 102.758 196.15 103.207 196.15 103.663C196.15 104.12 196.03 104.568 195.802 104.963C195.573 105.359 195.245 105.687 194.85 105.915C194.454 106.144 194.006 106.264 193.549 106.264H169.902Z" fill="#DBE8EC"/>
<path d="M171.203 72.9093C171.203 72.1908 170.62 71.6084 169.902 71.6084C169.183 71.6084 168.601 72.1908 168.601 72.9093V92.3034C168.601 93.0219 169.183 93.6043 169.902 93.6043C170.62 93.6043 171.203 93.0219 171.203 92.3034V72.9093Z" fill="#409CB5"/>
<path d="M172.999 99.0029C173.168 97.2923 171.919 95.7683 170.208 95.5989C168.498 95.4295 166.974 96.6789 166.804 98.3895C166.635 100.1 167.884 101.624 169.595 101.794C171.306 101.963 172.83 100.714 172.999 99.0029Z" fill="#409CB5"/>
<path d="M190.517 147.454H72.7241C72.2786 147.454 71.8425 147.326 71.4675 147.085C71.0926 146.845 70.7947 146.502 70.6092 146.096C70.4237 145.691 70.3584 145.242 70.4211 144.801C70.4837 144.36 70.6718 143.946 70.9628 143.608L106.415 102.513H230.352L192.279 146.647C192.06 146.9 191.79 147.103 191.486 147.243C191.182 147.382 190.852 147.454 190.517 147.454Z" fill="#47ACC4"/>
<path d="M305.755 184.841C308.693 184.841 308.693 186.392 311.632 186.392C314.569 186.392 314.569 184.841 317.507 184.841C320.446 184.841 320.446 186.392 323.386 186.392C326.325 186.392 326.325 184.841 329.265 184.841" stroke="#B9D4DB" stroke-width="3" stroke-miterlimit="10" stroke-linecap="round"/>
<path d="M305.755 191.617C308.693 191.617 308.693 193.168 311.632 193.168C314.569 193.168 314.569 191.617 317.507 191.617C320.446 191.617 320.446 193.168 323.386 193.168C326.325 193.168 326.325 191.617 329.265 191.617" stroke="#B9D4DB" stroke-width="3" stroke-miterlimit="10" stroke-linecap="round"/>
<path d="M305.755 198.394C308.693 198.394 308.693 199.944 311.632 199.944C314.569 199.944 314.569 198.394 317.507 198.394C320.446 198.394 320.446 199.944 323.386 199.944C326.325 199.944 326.325 198.394 329.265 198.394" stroke="#B9D4DB" stroke-width="3" stroke-miterlimit="10" stroke-linecap="round"/>
<path d="M24.2099 149.005C27.1484 149.005 27.1484 150.556 30.0868 150.556C33.0243 150.556 33.0243 149.005 35.9618 149.005C38.9014 149.005 38.9014 150.556 41.8409 150.556C44.7805 150.556 44.7805 149.005 47.72 149.005" stroke="#B9D4DB" stroke-width="3" stroke-miterlimit="10" stroke-linecap="round"/>
<path d="M24.2099 155.781C27.1484 155.781 27.1484 157.332 30.0868 157.332C33.0243 157.332 33.0243 155.781 35.9618 155.781C38.9014 155.781 38.9014 157.332 41.8409 157.332C44.7805 157.332 44.7805 155.781 47.72 155.781" stroke="#B9D4DB" stroke-width="3" stroke-miterlimit="10" stroke-linecap="round"/>
<path d="M24.2099 162.557C27.1484 162.557 27.1484 164.108 30.0868 164.108C33.0243 164.108 33.0243 162.557 35.9618 162.557C38.9014 162.557 38.9014 164.108 41.8409 164.108C44.7805 164.108 44.7805 162.557 47.72 162.557" stroke="#B9D4DB" stroke-width="3" stroke-miterlimit="10" stroke-linecap="round"/>
<path d="M155.034 15.9688C157.973 15.9688 157.973 17.5195 160.911 17.5195C163.849 17.5195 163.849 15.9688 166.786 15.9688C169.726 15.9688 169.726 17.5195 172.665 17.5195C175.605 17.5195 175.605 15.9688 178.544 15.9688" stroke="#B9D4DB" stroke-width="3" stroke-miterlimit="10" stroke-linecap="round"/>
<path d="M155.034 22.7451C157.973 22.7451 157.973 24.2959 160.911 24.2959C163.849 24.2959 163.849 22.7451 166.786 22.7451C169.726 22.7451 169.726 24.2959 172.665 24.2959C175.605 24.2959 175.605 22.7451 178.544 22.7451" stroke="#B9D4DB" stroke-width="3" stroke-miterlimit="10" stroke-linecap="round"/>
<path d="M155.034 29.5215C157.973 29.5215 157.973 31.0723 160.911 31.0723C163.849 31.0723 163.849 29.5215 166.786 29.5215C169.726 29.5215 169.726 31.0723 172.665 31.0723C175.605 31.0723 175.605 29.5215 178.544 29.5215" stroke="#B9D4DB" stroke-width="3" stroke-miterlimit="10" stroke-linecap="round"/>
<path d="M80.4424 235.889C85.9923 235.889 90.4914 231.389 90.4914 225.84C90.4914 220.29 85.9923 215.791 80.4424 215.791C74.8925 215.791 70.3934 220.29 70.3934 225.84C70.3934 231.389 74.8925 235.889 80.4424 235.889Z" fill="#B9D4DB"/>
<path d="M87.7341 204.543C90.6118 204.543 92.9446 202.21 92.9446 199.333C92.9446 196.455 90.6118 194.122 87.7341 194.122C84.8563 194.122 82.5235 196.455 82.5235 199.333C82.5235 202.21 84.8563 204.543 87.7341 204.543Z" fill="#B9D4DB"/>
<path d="M108.37 234.4C112.481 234.4 115.813 231.067 115.813 226.956C115.813 222.845 112.481 219.513 108.37 219.513C104.259 219.513 100.926 222.845 100.926 226.956C100.926 231.067 104.259 234.4 108.37 234.4Z" fill="#B9D4DB"/>
<path d="M70.5671 99.3829C77.1704 99.3829 82.5234 94.0299 82.5234 87.4265C82.5234 80.8232 77.1704 75.4702 70.5671 75.4702C63.9638 75.4702 58.6107 80.8232 58.6107 87.4265C58.6107 94.0299 63.9638 99.3829 70.5671 99.3829Z" fill="#B9D4DB"/>
<path d="M47.7201 85.1383C51.1596 85.1383 53.948 82.35 53.948 78.9105C53.948 75.4709 51.1596 72.6826 47.7201 72.6826C44.2805 72.6826 41.4922 75.4709 41.4922 78.9105C41.4922 82.35 44.2805 85.1383 47.7201 85.1383Z" fill="#B9D4DB"/>
<path d="M53.4404 61.3327C55.4245 61.3327 57.0328 59.7244 57.0328 57.7403C57.0328 55.7563 55.4245 54.1479 53.4404 54.1479C51.4564 54.1479 49.8481 55.7563 49.8481 57.7403C49.8481 59.7244 51.4564 61.3327 53.4404 61.3327Z" fill="#B9D4DB"/>
<path d="M73.327 68.894C78.0832 68.894 81.9389 65.0384 81.9389 60.2822C81.9389 55.526 78.0832 51.6704 73.327 51.6704C68.5709 51.6704 64.7152 55.526 64.7152 60.2822C64.7152 65.0384 68.5709 68.894 73.327 68.894Z" fill="#B9D4DB"/>
<path d="M278.384 41.3966C284.988 41.3966 290.341 36.0435 290.341 29.4402C290.341 22.8369 284.988 17.4839 278.384 17.4839C271.781 17.4839 266.428 22.8369 266.428 29.4402C266.428 36.0435 271.781 41.3966 278.384 41.3966Z" fill="#B9D4DB"/>
<path d="M297.409 20.4176C300.848 20.4176 303.636 17.6293 303.636 14.1898C303.636 10.7502 300.848 7.96191 297.409 7.96191C293.969 7.96191 291.181 10.7502 291.181 14.1898C291.181 17.6293 293.969 20.4176 297.409 20.4176Z" fill="#B9D4DB"/>
<path d="M321.199 53.7545C324.176 53.7545 326.589 51.3413 326.589 48.3643C326.589 45.3874 324.176 42.9741 321.199 42.9741C318.222 42.9741 315.809 45.3874 315.809 48.3643C315.809 51.3413 318.222 53.7545 321.199 53.7545Z" fill="#B9D4DB"/>
<path d="M312.653 33.5466C314.637 33.5466 316.245 31.9382 316.245 29.9542C316.245 27.9702 314.637 26.3618 312.653 26.3618C310.669 26.3618 309.06 27.9702 309.06 29.9542C309.06 31.9382 310.669 33.5466 312.653 33.5466Z" fill="#B9D4DB"/>
<path d="M300.275 54.3374C305.032 54.3374 308.887 50.4818 308.887 45.7256C308.887 40.9694 305.032 37.1138 300.275 37.1138C295.519 37.1138 291.664 40.9694 291.664 45.7256C291.664 50.4818 295.519 54.3374 300.275 54.3374Z" fill="#B9D4DB"/>
</svg>
