<svg width="380" height="241" viewBox="0 0 380 241" fill="none" xmlns="http://www.w3.org/2000/svg">
<path d="M379.12 93.1627V79.0575C379.12 76.3678 378.051 73.7882 376.149 71.8863C374.247 69.9844 371.668 68.9159 368.978 68.9159H333.182C331.85 68.9159 330.531 68.6536 329.301 68.1439C328.07 67.6342 326.952 66.8872 326.01 65.9455C325.069 65.0038 324.322 63.8858 323.812 62.6553C323.302 61.4249 323.04 60.1061 323.04 58.7743V44.6691C323.04 43.3373 323.302 42.0185 323.812 40.7881C324.322 39.5577 325.069 38.4397 326.01 37.4979C326.952 36.5562 328.07 35.8092 329.301 35.2995C330.531 34.7899 331.85 34.5275 333.182 34.5275H334.312C337.002 34.5275 339.581 33.459 341.483 31.5571C343.385 29.6552 344.454 27.0756 344.454 24.3859V10.2808C344.454 7.59105 343.385 5.01149 341.483 3.10957C339.581 1.20765 337.002 0.13916 334.312 0.13916H69.2022C66.5125 0.13916 63.933 1.20765 62.031 3.10957C60.1291 5.01149 59.0606 7.59105 59.0606 10.2808V24.3859C59.0606 27.0756 60.1291 29.6552 62.031 31.5571C63.933 33.459 66.5125 34.5275 69.2022 34.5275C71.892 34.5275 74.4715 35.596 76.3734 37.4979C78.2754 39.3999 79.3439 41.9794 79.3439 44.6691V58.7743C79.3439 61.464 78.2754 64.0436 76.3734 65.9455C74.4715 67.8474 71.892 68.9159 69.2022 68.9159H29.9838C27.294 68.9159 24.7145 69.9844 22.8126 71.8863C20.9106 73.7882 19.8421 76.3678 19.8421 79.0575V93.1627C19.8421 95.8524 20.9106 98.4319 22.8126 100.334C24.7145 102.236 27.294 103.304 29.9838 103.304H45.3725C46.7043 103.304 48.0231 103.567 49.2535 104.076C50.484 104.586 51.602 105.333 52.5437 106.275C53.4854 107.216 54.2325 108.334 54.7421 109.565C55.2518 110.795 55.5141 112.114 55.5141 113.446V127.551C55.5141 128.883 55.2518 130.202 54.7421 131.432C54.2325 132.663 53.4854 133.781 52.5437 134.722C51.602 135.664 50.484 136.411 49.2535 136.921C48.0231 137.43 46.7043 137.693 45.3725 137.693H45.3353C42.6456 137.693 40.066 138.761 38.1641 140.663C36.2622 142.565 35.1937 145.145 35.1937 147.834V161.939C35.1937 163.271 35.456 164.59 35.9657 165.82C36.4754 167.051 37.2224 168.169 38.1641 169.111C39.1059 170.052 40.2239 170.799 41.4543 171.309C42.6847 171.819 44.0035 172.081 45.3353 172.081H47.5618C50.2515 172.081 52.831 173.15 54.733 175.051C56.6349 176.953 57.7034 179.533 57.7034 182.223V196.328C57.7034 199.018 56.6349 201.597 54.733 203.499C52.831 205.401 50.2515 206.469 47.5618 206.469H11.0221C8.33238 206.469 5.75283 207.538 3.85091 209.44C1.94898 211.342 0.880493 213.921 0.880493 216.611V230.716C0.880493 233.406 1.94898 235.985 3.85091 237.887C5.75283 239.789 8.33238 240.858 11.0221 240.858H339.757C342.446 240.858 345.026 239.789 346.928 237.887C348.83 235.985 349.898 233.406 349.898 230.716V216.611C349.898 213.921 348.83 211.342 346.928 209.44C345.026 207.538 342.446 206.469 339.757 206.469H330.963C328.274 206.469 325.694 205.401 323.792 203.499C321.89 201.597 320.822 199.018 320.822 196.328V182.223C320.822 179.533 321.89 176.953 323.792 175.051C325.694 173.15 328.274 172.081 330.963 172.081H351.697C353.029 172.081 354.348 171.819 355.578 171.309C356.809 170.799 357.926 170.052 358.868 169.111C359.81 168.169 360.557 167.051 361.067 165.82C361.576 164.59 361.839 163.271 361.839 161.939V147.834C361.839 145.145 360.77 142.565 358.868 140.663C356.966 138.761 354.387 137.693 351.697 137.693H345.407C344.076 137.693 342.757 137.43 341.526 136.921C340.296 136.411 339.178 135.664 338.236 134.722C337.294 133.781 336.547 132.663 336.038 131.432C335.528 130.202 335.266 128.883 335.266 127.551V113.446C335.266 112.114 335.528 110.795 336.038 109.565C336.547 108.334 337.294 107.216 338.236 106.275C339.178 105.333 340.296 104.586 341.526 104.076C342.757 103.567 344.076 103.304 345.407 103.304H368.978C371.668 103.304 374.247 102.236 376.149 100.334C378.051 98.4319 379.12 95.8524 379.12 93.1627Z" fill="white"/>
<path d="M230.631 101.732H106.694V214.504H230.631V101.732Z" fill="#409CB5"/>
<path d="M296.508 101.732H230.631V214.504H296.508V101.732Z" fill="#3086A3"/>
<path d="M296.508 102.011H230.631L253.195 71.2333C253.411 70.9386 253.694 70.6989 254.02 70.5337C254.346 70.3685 254.706 70.2825 255.071 70.2825H315.179C315.609 70.2825 316.031 70.4016 316.397 70.6266C316.763 70.8516 317.06 71.1736 317.254 71.557C317.449 71.9404 317.533 72.3702 317.498 72.7986C317.463 73.227 317.31 73.6373 317.055 73.984L296.508 102.011Z" fill="#25788E"/>
<path d="M107 102.011H172.877L150.312 71.2333C150.096 70.9386 149.814 70.6989 149.488 70.5337C149.162 70.3685 148.802 70.2825 148.436 70.2825H88.3281C87.8983 70.2825 87.4768 70.4016 87.1106 70.6266C86.7443 70.8516 86.4475 71.1736 86.2532 71.557C86.0589 71.9404 85.9746 72.3702 86.0097 72.7986C86.0448 73.227 86.198 73.6373 86.4521 73.984L107 102.011Z" fill="#3086A3"/>
<path d="M333.673 143.107L296.508 102.011V146.952H331.912C332.358 146.952 332.794 146.824 333.169 146.584C333.543 146.343 333.841 146 334.027 145.595C334.212 145.19 334.278 144.74 334.215 144.299C334.152 143.858 333.964 143.444 333.673 143.107Z" fill="#25788E"/>
<path d="M215.391 41.2473H129.437V102.011H215.391V41.2473Z" fill="#EE2738"/>
<path d="M169.902 105.762H146.254C145.798 105.762 145.349 105.642 144.954 105.414C144.559 105.186 144.23 104.858 144.002 104.462C143.774 104.067 143.654 103.618 143.654 103.162C143.654 102.705 143.774 102.257 144.002 101.862L155.826 81.3821L167.65 60.9026C167.878 60.5072 168.206 60.179 168.602 59.9507C168.997 59.7225 169.445 59.6023 169.902 59.6023C170.358 59.6023 170.807 59.7225 171.202 59.9507C171.597 60.179 171.926 60.5072 172.154 60.9026L183.978 81.3821L195.802 101.862C196.03 102.257 196.15 102.705 196.15 103.162C196.15 103.618 196.03 104.067 195.802 104.462C195.573 104.858 195.245 105.186 194.85 105.414C194.454 105.642 194.006 105.762 193.549 105.762H169.902Z" fill="#DBE8EC"/>
<path d="M171.203 72.4081C171.203 71.6896 170.62 71.1072 169.902 71.1072C169.183 71.1072 168.601 71.6896 168.601 72.4081V91.8022C168.601 92.5206 169.183 93.1031 169.902 93.1031C170.62 93.1031 171.203 92.5206 171.203 91.8022V72.4081Z" fill="#409CB5"/>
<path d="M172.999 98.5012C173.168 96.7906 171.919 95.2666 170.208 95.0972C168.498 94.9278 166.974 96.1772 166.804 97.8878C166.635 99.5984 167.884 101.122 169.595 101.292C171.306 101.461 172.83 100.212 172.999 98.5012Z" fill="#409CB5"/>
<path d="M190.517 146.952H72.7241C72.2786 146.952 71.8425 146.825 71.4676 146.584C71.0927 146.343 70.7947 146 70.6092 145.595C70.4237 145.19 70.3584 144.74 70.4211 144.299C70.4838 143.858 70.6718 143.444 70.9628 143.107L106.415 102.011H230.352L192.279 146.146C192.06 146.399 191.79 146.602 191.486 146.741C191.182 146.88 190.852 146.952 190.517 146.952Z" fill="#47ACC4"/>
<path d="M305.755 184.339C308.693 184.339 308.693 185.89 311.632 185.89C314.569 185.89 314.569 184.339 317.507 184.339C320.446 184.339 320.446 185.89 323.386 185.89C326.325 185.89 326.325 184.339 329.265 184.339" stroke="#B9D4DB" stroke-width="3" stroke-miterlimit="10" stroke-linecap="round"/>
<path d="M305.755 191.115C308.693 191.115 308.693 192.666 311.632 192.666C314.569 192.666 314.569 191.115 317.507 191.115C320.446 191.115 320.446 192.666 323.386 192.666C326.325 192.666 326.325 191.115 329.265 191.115" stroke="#B9D4DB" stroke-width="3" stroke-miterlimit="10" stroke-linecap="round"/>
<path d="M305.755 197.892C308.693 197.892 308.693 199.443 311.632 199.443C314.569 199.443 314.569 197.892 317.507 197.892C320.446 197.892 320.446 199.443 323.386 199.443C326.325 199.443 326.325 197.892 329.265 197.892" stroke="#B9D4DB" stroke-width="3" stroke-miterlimit="10" stroke-linecap="round"/>
<path d="M24.21 148.503C27.1484 148.503 27.1484 150.054 30.0869 150.054C33.0244 150.054 33.0244 148.503 35.9619 148.503C38.9014 148.503 38.9014 150.054 41.841 150.054C44.7805 150.054 44.7805 148.503 47.7201 148.503" stroke="#B9D4DB" stroke-width="3" stroke-miterlimit="10" stroke-linecap="round"/>
<path d="M24.21 155.28C27.1484 155.28 27.1484 156.83 30.0869 156.83C33.0244 156.83 33.0244 155.28 35.9619 155.28C38.9014 155.28 38.9014 156.83 41.841 156.83C44.7805 156.83 44.7805 155.28 47.7201 155.28" stroke="#B9D4DB" stroke-width="3" stroke-miterlimit="10" stroke-linecap="round"/>
<path d="M24.21 162.056C27.1484 162.056 27.1484 163.607 30.0869 163.607C33.0244 163.607 33.0244 162.056 35.9619 162.056C38.9014 162.056 38.9014 163.607 41.841 163.607C44.7805 163.607 44.7805 162.056 47.7201 162.056" stroke="#B9D4DB" stroke-width="3" stroke-miterlimit="10" stroke-linecap="round"/>
<path d="M155.034 15.4673C157.973 15.4673 157.973 17.0181 160.911 17.0181C163.849 17.0181 163.849 15.4673 166.786 15.4673C169.726 15.4673 169.726 17.0181 172.665 17.0181C175.605 17.0181 175.605 15.4673 178.544 15.4673" stroke="#B9D4DB" stroke-width="3" stroke-miterlimit="10" stroke-linecap="round"/>
<path d="M155.034 22.2437C157.973 22.2437 157.973 23.7944 160.911 23.7944C163.849 23.7944 163.849 22.2437 166.786 22.2437C169.726 22.2437 169.726 23.7944 172.665 23.7944C175.605 23.7944 175.605 22.2437 178.544 22.2437" stroke="#B9D4DB" stroke-width="3" stroke-miterlimit="10" stroke-linecap="round"/>
<path d="M155.034 29.0198C157.973 29.0198 157.973 30.5705 160.911 30.5705C163.849 30.5705 163.849 29.0198 166.786 29.0198C169.726 29.0198 169.726 30.5705 172.665 30.5705C175.605 30.5705 175.605 29.0198 178.544 29.0198" stroke="#B9D4DB" stroke-width="3" stroke-miterlimit="10" stroke-linecap="round"/>
<path d="M80.4424 235.387C85.9923 235.387 90.4914 230.888 90.4914 225.338C90.4914 219.788 85.9923 215.289 80.4424 215.289C74.8925 215.289 70.3934 219.788 70.3934 225.338C70.3934 230.888 74.8925 235.387 80.4424 235.387Z" fill="#B9D4DB"/>
<path d="M87.734 204.042C90.6117 204.042 92.9446 201.709 92.9446 198.831C92.9446 195.953 90.6117 193.621 87.734 193.621C84.8563 193.621 82.5234 195.953 82.5234 198.831C82.5234 201.709 84.8563 204.042 87.734 204.042Z" fill="#B9D4DB"/>
<path d="M108.37 233.899C112.481 233.899 115.813 230.566 115.813 226.455C115.813 222.344 112.481 219.011 108.37 219.011C104.259 219.011 100.926 222.344 100.926 226.455C100.926 230.566 104.259 233.899 108.37 233.899Z" fill="#B9D4DB"/>
<path d="M70.5671 98.8817C77.1704 98.8817 82.5234 93.5286 82.5234 86.9253C82.5234 80.322 77.1704 74.969 70.5671 74.969C63.9638 74.969 58.6107 80.322 58.6107 86.9253C58.6107 93.5286 63.9638 98.8817 70.5671 98.8817Z" fill="#B9D4DB"/>
<path d="M47.72 84.6371C51.1596 84.6371 53.9479 81.8488 53.9479 78.4093C53.9479 74.9697 51.1596 72.1814 47.72 72.1814C44.2805 72.1814 41.4922 74.9697 41.4922 78.4093C41.4922 81.8488 44.2805 84.6371 47.72 84.6371Z" fill="#B9D4DB"/>
<path d="M53.4404 60.8313C55.4244 60.8313 57.0328 59.2229 57.0328 57.2389C57.0328 55.2549 55.4244 53.6465 53.4404 53.6465C51.4564 53.6465 49.848 55.2549 49.848 57.2389C49.848 59.2229 51.4564 60.8313 53.4404 60.8313Z" fill="#B9D4DB"/>
<path d="M73.327 68.3926C78.0832 68.3926 81.9388 64.5369 81.9388 59.7808C81.9388 55.0246 78.0832 51.1689 73.327 51.1689C68.5708 51.1689 64.7152 55.0246 64.7152 59.7808C64.7152 64.5369 68.5708 68.3926 73.327 68.3926Z" fill="#B9D4DB"/>
<path d="M278.384 40.8948C284.988 40.8948 290.341 35.5418 290.341 28.9385C290.341 22.3352 284.988 16.9822 278.384 16.9822C271.781 16.9822 266.428 22.3352 266.428 28.9385C266.428 35.5418 271.781 40.8948 278.384 40.8948Z" fill="#B9D4DB"/>
<path d="M297.409 19.9159C300.848 19.9159 303.636 17.1276 303.636 13.6881C303.636 10.2485 300.848 7.46021 297.409 7.46021C293.969 7.46021 291.181 10.2485 291.181 13.6881C291.181 17.1276 293.969 19.9159 297.409 19.9159Z" fill="#B9D4DB"/>
<path d="M321.199 53.2533C324.176 53.2533 326.59 50.84 326.59 47.8631C326.59 44.8862 324.176 42.4729 321.199 42.4729C318.222 42.4729 315.809 44.8862 315.809 47.8631C315.809 50.84 318.222 53.2533 321.199 53.2533Z" fill="#B9D4DB"/>
<path d="M312.653 33.0451C314.637 33.0451 316.245 31.4368 316.245 29.4527C316.245 27.4687 314.637 25.8604 312.653 25.8604C310.669 25.8604 309.061 27.4687 309.061 29.4527C309.061 31.4368 310.669 33.0451 312.653 33.0451Z" fill="#B9D4DB"/>
<path d="M300.275 53.8359C305.032 53.8359 308.887 49.9803 308.887 45.2241C308.887 40.4679 305.032 36.6123 300.275 36.6123C295.519 36.6123 291.664 40.4679 291.664 45.2241C291.664 49.9803 295.519 53.8359 300.275 53.8359Z" fill="#B9D4DB"/>
</svg>