<svg width="504" height="357" viewBox="0 0 504 397" fill="none" xmlns="http://www.w3.org/2000/svg">
<path d="M441.12 171.163V157.058C441.12 154.368 440.051 151.788 438.149 149.886C436.247 147.984 433.668 146.916 430.978 146.916H395.182C393.85 146.916 392.531 146.654 391.301 146.144C390.07 145.634 388.952 144.887 388.01 143.945C387.069 143.004 386.322 141.886 385.812 140.655C385.302 139.425 385.04 138.106 385.04 136.774V122.669C385.04 121.337 385.302 120.019 385.812 118.788C386.322 117.558 387.069 116.44 388.01 115.498C388.952 114.556 390.07 113.809 391.301 113.3C392.531 112.79 393.85 112.528 395.182 112.528H396.312C399.002 112.528 401.581 111.459 403.483 109.557C405.385 107.655 406.454 105.076 406.454 102.386V88.2808C406.454 85.591 405.385 83.0115 403.483 81.1096C401.581 79.2077 399.002 78.1392 396.312 78.1392H131.202C128.513 78.1392 125.933 79.2077 124.031 81.1096C122.129 83.0115 121.061 85.591 121.061 88.2808V102.386C121.061 105.076 122.129 107.655 124.031 109.557C125.933 111.459 128.513 112.528 131.202 112.528C133.892 112.528 136.472 113.596 138.373 115.498C140.275 117.4 141.344 119.979 141.344 122.669V136.774C141.344 139.464 140.275 142.044 138.373 143.945C136.472 145.847 133.892 146.916 131.202 146.916H91.9838C89.294 146.916 86.7145 147.984 84.8126 149.886C82.9106 151.788 81.8421 154.368 81.8421 157.058V171.163C81.8421 173.852 82.9106 176.432 84.8126 178.334C86.7145 180.236 89.294 181.304 91.9838 181.304H107.372C108.704 181.304 110.023 181.567 111.254 182.076C112.484 182.586 113.602 183.333 114.544 184.275C115.485 185.216 116.232 186.334 116.742 187.565C117.252 188.795 117.514 190.114 117.514 191.446V205.551C117.514 206.883 117.252 208.202 116.742 209.432C116.232 210.663 115.485 211.781 114.544 212.722C113.602 213.664 112.484 214.411 111.254 214.921C110.023 215.43 108.704 215.693 107.372 215.693H107.335C104.646 215.693 102.066 216.761 100.164 218.663C98.2622 220.565 97.1937 223.145 97.1937 225.834V239.939C97.1937 241.271 97.456 242.59 97.9657 243.82C98.4754 245.051 99.2224 246.169 100.164 247.111C101.106 248.052 102.224 248.799 103.454 249.309C104.685 249.819 106.004 250.081 107.335 250.081H109.562C112.251 250.081 114.831 251.15 116.733 253.051C118.635 254.953 119.703 257.533 119.703 260.223V274.328C119.703 277.018 118.635 279.597 116.733 281.499C114.831 283.401 112.251 284.469 109.562 284.469H73.0221C70.3324 284.469 67.7528 285.538 65.8509 287.44C63.949 289.342 62.8805 291.921 62.8805 294.611V308.716C62.8805 311.406 63.949 313.985 65.8509 315.887C67.7528 317.789 70.3324 318.858 73.0221 318.858H401.757C404.446 318.858 407.026 317.789 408.928 315.887C410.83 313.985 411.898 311.406 411.898 308.716V294.611C411.898 291.921 410.83 289.342 408.928 287.44C407.026 285.538 404.446 284.469 401.757 284.469H392.963C390.274 284.469 387.694 283.401 385.792 281.499C383.89 279.597 382.822 277.018 382.822 274.328V260.223C382.822 257.533 383.89 254.953 385.792 253.051C387.694 251.15 390.274 250.081 392.963 250.081H413.697C415.029 250.081 416.348 249.819 417.578 249.309C418.809 248.799 419.926 248.052 420.868 247.111C421.81 246.169 422.557 245.051 423.067 243.82C423.576 242.59 423.839 241.271 423.839 239.939V225.834C423.839 223.145 422.77 220.565 420.868 218.663C418.966 216.761 416.387 215.693 413.697 215.693H407.407C406.076 215.693 404.757 215.43 403.526 214.921C402.296 214.411 401.178 213.664 400.236 212.722C399.294 211.781 398.547 210.663 398.038 209.432C397.528 208.202 397.266 206.883 397.266 205.551V191.446C397.266 190.114 397.528 188.795 398.038 187.565C398.547 186.334 399.294 185.216 400.236 184.275C401.178 183.333 402.296 182.586 403.526 182.076C404.757 181.567 406.076 181.304 407.407 181.304H430.978C433.668 181.304 436.247 180.236 438.149 178.334C440.051 176.432 441.12 173.852 441.12 171.163Z" fill="white"/>
<path d="M292.631 179.732H168.694V292.504H292.631V179.732Z" fill="#409CB5"/>
<path d="M358.508 179.732H292.631V292.504H358.508V179.732Z" fill="#3086A3"/>
<path d="M358.508 180.011H292.631L315.195 149.233C315.411 148.939 315.694 148.699 316.02 148.534C316.346 148.369 316.706 148.282 317.071 148.282H377.179C377.609 148.282 378.031 148.402 378.397 148.627C378.763 148.852 379.06 149.174 379.254 149.557C379.449 149.94 379.533 150.37 379.498 150.799C379.463 151.227 379.31 151.637 379.055 151.984L358.508 180.011Z" fill="#25788E"/>
<path d="M169 180.011H234.877L212.312 149.233C212.096 148.939 211.814 148.699 211.488 148.534C211.162 148.369 210.802 148.282 210.436 148.282H150.328C149.898 148.282 149.477 148.402 149.111 148.627C148.744 148.852 148.448 149.174 148.253 149.557C148.059 149.94 147.975 150.37 148.01 150.799C148.045 151.227 148.198 151.637 148.452 151.984L169 180.011Z" fill="#3086A3"/>
<path d="M395.673 221.107L358.508 180.011V224.952H393.912C394.358 224.952 394.794 224.824 395.169 224.584C395.543 224.343 395.841 224 396.027 223.595C396.212 223.19 396.278 222.74 396.215 222.299C396.152 221.858 395.964 221.444 395.673 221.107Z" fill="#25788E"/>
<path d="M277.391 119.247H191.437V180.011H277.391V119.247Z" fill="#EE2738"/>
<path d="M231.902 183.762H208.254C207.798 183.762 207.349 183.642 206.954 183.414C206.559 183.186 206.23 182.858 206.002 182.462C205.774 182.067 205.654 181.618 205.654 181.162C205.654 180.705 205.774 180.257 206.002 179.862L217.826 159.382L229.65 138.903C229.878 138.507 230.206 138.179 230.602 137.951C230.997 137.722 231.445 137.602 231.902 137.602C232.358 137.602 232.807 137.722 233.202 137.951C233.597 138.179 233.926 138.507 234.154 138.903L245.978 159.382L257.802 179.862C258.03 180.257 258.15 180.705 258.15 181.162C258.15 181.618 258.03 182.067 257.802 182.462C257.573 182.858 257.245 183.186 256.85 183.414C256.454 183.642 256.006 183.762 255.549 183.762H231.902Z" fill="#DBE8EC"/>
<path d="M233.203 150.408C233.203 149.69 232.62 149.107 231.902 149.107C231.183 149.107 230.601 149.69 230.601 150.408V169.802C230.601 170.521 231.183 171.103 231.902 171.103C232.62 171.103 233.203 170.521 233.203 169.802V150.408Z" fill="#409CB5"/>
<path d="M234.999 176.501C235.168 174.791 233.919 173.267 232.208 173.097C230.498 172.928 228.974 174.177 228.804 175.888C228.635 177.598 229.884 179.122 231.595 179.292C233.306 179.461 234.83 178.212 234.999 176.501Z" fill="#409CB5"/>
<path d="M252.517 224.952H134.724C134.279 224.952 133.842 224.825 133.468 224.584C133.093 224.343 132.795 224 132.609 223.595C132.424 223.19 132.358 222.74 132.421 222.299C132.484 221.858 132.672 221.444 132.963 221.107L168.415 180.011H292.352L254.279 224.146C254.06 224.399 253.79 224.602 253.486 224.741C253.182 224.88 252.852 224.952 252.517 224.952Z" fill="#47ACC4"/>
<path d="M367.755 262.339C370.693 262.339 370.693 263.89 373.632 263.89C376.569 263.89 376.569 262.339 379.507 262.339C382.446 262.339 382.446 263.89 385.386 263.89C388.325 263.89 388.325 262.339 391.265 262.339" stroke="#B9D4DB" stroke-width="3" stroke-miterlimit="10" stroke-linecap="round"/>
<path d="M367.755 269.115C370.693 269.115 370.693 270.666 373.632 270.666C376.569 270.666 376.569 269.115 379.507 269.115C382.446 269.115 382.446 270.666 385.386 270.666C388.325 270.666 388.325 269.115 391.265 269.115" stroke="#B9D4DB" stroke-width="3" stroke-miterlimit="10" stroke-linecap="round"/>
<path d="M367.755 275.892C370.693 275.892 370.693 277.443 373.632 277.443C376.569 277.443 376.569 275.892 379.507 275.892C382.446 275.892 382.446 277.443 385.386 277.443C388.325 277.443 388.325 275.892 391.265 275.892" stroke="#B9D4DB" stroke-width="3" stroke-miterlimit="10" stroke-linecap="round"/>
<path d="M86.21 226.503C89.1484 226.503 89.1484 228.054 92.0869 228.054C95.0244 228.054 95.0244 226.503 97.9619 226.503C100.901 226.503 100.901 228.054 103.841 228.054C106.781 228.054 106.781 226.503 109.72 226.503" stroke="#B9D4DB" stroke-width="3" stroke-miterlimit="10" stroke-linecap="round"/>
<path d="M86.21 233.28C89.1484 233.28 89.1484 234.83 92.0869 234.83C95.0244 234.83 95.0244 233.28 97.9619 233.28C100.901 233.28 100.901 234.83 103.841 234.83C106.781 234.83 106.781 233.28 109.72 233.28" stroke="#B9D4DB" stroke-width="3" stroke-miterlimit="10" stroke-linecap="round"/>
<path d="M86.21 240.056C89.1484 240.056 89.1484 241.607 92.0869 241.607C95.0244 241.607 95.0244 240.056 97.9619 240.056C100.901 240.056 100.901 241.607 103.841 241.607C106.781 241.607 106.781 240.056 109.72 240.056" stroke="#B9D4DB" stroke-width="3" stroke-miterlimit="10" stroke-linecap="round"/>
<path d="M217.034 93.4673C219.973 93.4673 219.973 95.0181 222.911 95.0181C225.849 95.0181 225.849 93.4673 228.786 93.4673C231.726 93.4673 231.726 95.0181 234.665 95.0181C237.605 95.0181 237.605 93.4673 240.544 93.4673" stroke="#B9D4DB" stroke-width="3" stroke-miterlimit="10" stroke-linecap="round"/>
<path d="M217.034 100.244C219.973 100.244 219.973 101.794 222.911 101.794C225.849 101.794 225.849 100.244 228.786 100.244C231.726 100.244 231.726 101.794 234.665 101.794C237.605 101.794 237.605 100.244 240.544 100.244" stroke="#B9D4DB" stroke-width="3" stroke-miterlimit="10" stroke-linecap="round"/>
<path d="M217.034 107.02C219.973 107.02 219.973 108.571 222.911 108.571C225.849 108.571 225.849 107.02 228.786 107.02C231.726 107.02 231.726 108.571 234.665 108.571C237.605 108.571 237.605 107.02 240.544 107.02" stroke="#B9D4DB" stroke-width="3" stroke-miterlimit="10" stroke-linecap="round"/>
<path d="M142.442 313.387C147.992 313.387 152.491 308.888 152.491 303.338C152.491 297.788 147.992 293.289 142.442 293.289C136.893 293.289 132.393 297.788 132.393 303.338C132.393 308.888 136.893 313.387 142.442 313.387Z" fill="#B9D4DB"/>
<path d="M149.734 282.042C152.612 282.042 154.945 279.709 154.945 276.831C154.945 273.953 152.612 271.621 149.734 271.621C146.856 271.621 144.523 273.953 144.523 276.831C144.523 279.709 146.856 282.042 149.734 282.042Z" fill="#B9D4DB"/>
<path d="M170.37 311.899C174.481 311.899 177.813 308.566 177.813 304.455C177.813 300.344 174.481 297.011 170.37 297.011C166.259 297.011 162.926 300.344 162.926 304.455C162.926 308.566 166.259 311.899 170.37 311.899Z" fill="#B9D4DB"/>
<path d="M132.567 176.882C139.17 176.882 144.523 171.529 144.523 164.925C144.523 158.322 139.17 152.969 132.567 152.969C125.964 152.969 120.611 158.322 120.611 164.925C120.611 171.529 125.964 176.882 132.567 176.882Z" fill="#B9D4DB"/>
<path d="M109.72 162.637C113.16 162.637 115.948 159.849 115.948 156.409C115.948 152.97 113.16 150.181 109.72 150.181C106.28 150.181 103.492 152.97 103.492 156.409C103.492 159.849 106.28 162.637 109.72 162.637Z" fill="#B9D4DB"/>
<path d="M115.44 138.831C117.424 138.831 119.033 137.223 119.033 135.239C119.033 133.255 117.424 131.646 115.44 131.646C113.456 131.646 111.848 133.255 111.848 135.239C111.848 137.223 113.456 138.831 115.44 138.831Z" fill="#B9D4DB"/>
<path d="M135.327 146.393C140.083 146.393 143.939 142.537 143.939 137.781C143.939 133.025 140.083 129.169 135.327 129.169C130.571 129.169 126.715 133.025 126.715 137.781C126.715 142.537 130.571 146.393 135.327 146.393Z" fill="#B9D4DB"/>
<path d="M340.384 118.895C346.988 118.895 352.341 113.542 352.341 106.939C352.341 100.335 346.988 94.9822 340.384 94.9822C333.781 94.9822 328.428 100.335 328.428 106.939C328.428 113.542 333.781 118.895 340.384 118.895Z" fill="#B9D4DB"/>
<path d="M359.409 97.9159C362.848 97.9159 365.636 95.1276 365.636 91.6881C365.636 88.2485 362.848 85.4602 359.409 85.4602C355.969 85.4602 353.181 88.2485 353.181 91.6881C353.181 95.1276 355.969 97.9159 359.409 97.9159Z" fill="#B9D4DB"/>
<path d="M383.199 131.253C386.176 131.253 388.59 128.84 388.59 125.863C388.59 122.886 386.176 120.473 383.199 120.473C380.222 120.473 377.809 122.886 377.809 125.863C377.809 128.84 380.222 131.253 383.199 131.253Z" fill="#B9D4DB"/>
<path d="M374.653 111.045C376.637 111.045 378.245 109.437 378.245 107.453C378.245 105.469 376.637 103.86 374.653 103.86C372.669 103.86 371.061 105.469 371.061 107.453C371.061 109.437 372.669 111.045 374.653 111.045Z" fill="#B9D4DB"/>
<path d="M362.275 131.836C367.032 131.836 370.887 127.98 370.887 123.224C370.887 118.468 367.032 114.612 362.275 114.612C357.519 114.612 353.664 118.468 353.664 123.224C353.664 127.98 357.519 131.836 362.275 131.836Z" fill="#B9D4DB"/>
</svg>
